<svg width="34" height="35" viewBox="0 0 34 35" fill="none" xmlns="http://www.w3.org/2000/svg">
<path d="M13.5601 0C6.06342 0 0 6.09868 0 13.639C0 21.1793 6.06342 27.2779 13.5601 27.2779C16.2366 27.2779 18.7137 26.4882 20.8138 25.1468L30.61 35L34 31.5903L24.3284 21.8875C26.0671 19.5935 27.1202 16.751 27.1202 13.639C27.1202 6.09868 21.0568 0 13.5601 0ZM13.5601 3.20917C19.3026 3.20917 23.9296 7.86309 23.9296 13.639C23.9296 19.4148 19.3026 24.0688 13.5601 24.0688C7.81763 24.0688 3.19062 19.4148 3.19062 13.639C3.19062 7.86309 7.81763 3.20917 13.5601 3.20917Z" fill="white"/>
</svg>
